<svg id="Layer_1" data-name="Layer 1" xmlns="http://www.w3.org/2000/svg" viewBox="0 0 1000 1000"><defs><style>.cls-1{fill:#0b1e3a;}.cls-2,.cls-3{fill:#f4b400;}.cls-3{font-size:179.39px;font-family:MyriadPro-Regular, Myriad Pro;}</style></defs><rect class="cls-1" x="434.45" y="458.71" width="14.67" height="35.68"/><polyline class="cls-1" points="479.79 431.6 479.79 494.39 464.68 494.39 464.68 421.44"/><path class="cls-1" d="M444.93,448.45h9.93a0,0,0,0,1,0,0V478.9a0,0,0,0,1,0,0h-9.58a.35.35,0,0,1-.35-.35v-30.1A0,0,0,0,1,444.93,448.45Z" transform="translate(-13.78 913.57) rotate(-90)"/><polyline class="cls-1" points="449.12 414.71 449.12 453.83 434.45 453.83 434.45 421.38"/><rect class="cls-2" x="466.23" y="434.83" width="4.45" height="4.45"/><rect class="cls-2" x="443.12" y="424.94" width="4.45" height="4.45"/><rect class="cls-2" x="436.45" y="433.83" width="4.45" height="4.45"/><rect class="cls-2" x="436.45" y="424.94" width="4.45" height="4.45"/><rect class="cls-2" x="443.12" y="433.83" width="4.45" height="4.45"/><rect class="cls-2" x="436.45" y="442.72" width="4.45" height="4.45"/><rect class="cls-2" x="443.12" y="442.72" width="4.45" height="4.45"/><rect class="cls-2" x="473.34" y="434.83" width="4.45" height="4.45"/><rect class="cls-2" x="448.97" y="468.17" width="16.37" height="26.23"/><rect class="cls-2" x="466.23" y="443.72" width="4.45" height="4.45"/><rect class="cls-2" x="473.34" y="443.72" width="4.45" height="4.45"/><text class="cls-3" transform="translate(476.31 552.65) scale(0.84 1)">O</text><path class="cls-1" d="M548.81,497h0a19.87,19.87,0,1,0-35.18,0h0l0,0a20.44,20.44,0,0,0,1.63,2.55l15.94,25,15.94-25a20.44,20.44,0,0,0,1.63-2.55Z"/><rect class="cls-2" x="460.76" y="509.5" width="12" height="53"/><path class="cls-2" d="M508,515.63h.15a0,0,0,0,1,0,0v85.24a0,0,0,0,1,0,0h-9.5a0,0,0,0,1,0,0V525A9.35,9.35,0,0,1,508,515.63Z" transform="translate(1061.63 54.87) rotate(90)"/><circle class="cls-2" cx="531.21" cy="488.87" r="10.41"/><path class="cls-1" d="M465.35,524.9h12.91a3.4,3.4,0,0,1,3.4,3.4v3.85a4.1,4.1,0,0,1-4.1,4.1H465.35a0,0,0,0,1,0,0V524.9A0,0,0,0,1,465.35,524.9Z"/><path class="cls-1" d="M470.32,548.08h22a0,0,0,0,1,0,0V559a0,0,0,0,1,0,0h-22a4.94,4.94,0,0,1-4.94-4.94v-1A5,5,0,0,1,470.32,548.08Z" transform="translate(957.67 1107.04) rotate(180)"/><path class="cls-1" d="M418.67,499.82h54.75a5.25,5.25,0,0,1,5.25,5.25v2.29a5.23,5.23,0,0,1-5.23,5.23H418.67a0,0,0,0,1,0,0V499.82A0,0,0,0,1,418.67,499.82Z"/><rect class="cls-1" x="434.36" y="527.03" width="51.09" height="12.77" transform="translate(993.32 73.5) rotate(90)"/><polyline class="cls-2" points="433.36 421.44 433.36 494.61 418.24 494.61 418.24 428.16"/><rect class="cls-1" x="427.16" y="431.68" width="4.45" height="4.45"/><rect class="cls-1" x="420.49" y="440.57" width="4.45" height="4.45"/><rect class="cls-1" x="420.49" y="431.68" width="4.45" height="4.45"/><rect class="cls-1" x="427.16" y="440.57" width="4.45" height="4.45"/><rect class="cls-1" x="420.49" y="449.46" width="4.45" height="4.45"/><rect class="cls-1" x="427.16" y="449.46" width="4.45" height="4.45"/></svg>